<?xml version="1.0" encoding="UTF-8"?>
<svg width="24px" height="24px" viewBox="0 0 24 24" version="1.1" xmlns="http://www.w3.org/2000/svg" xmlns:xlink="http://www.w3.org/1999/xlink">
    <title>search_not_selected</title>
    <g id="Final-style-GUI" stroke="none" stroke-width="1" fill="none" fill-rule="evenodd">
        <g id="icons-set" transform="translate(-276.000000, -480.000000)">
            <g id="search_not_selected" transform="translate(276.000000, 480.000000)">
                <rect id="Rectangle" fill="#D8D8D8" opacity="0" x="0" y="0" width="24" height="24"></rect>
                <path d="M10,1 C14.9705627,1 19,5.02943725 19,10 C19,11.7919239 18.4763123,13.461534 17.573635,14.864132 L22.8681412,20.0772287 C23.6297645,20.8271254 23.6392708,22.0524544 22.8893741,22.8140777 L22.8793581,22.8241758 L22.8793581,22.8241758 C22.116679,23.5874787 20.8810358,23.5925243 20.1121485,22.8354755 L14.805943,17.6107695 C13.4154537,18.4906588 11.7672084,19 10,19 C5.02943725,19 1,14.9705627 1,10 C1,5.02943725 5.02943725,1 10,1 Z M7.92239209,3.61382518 L7.88632463,3.61392917 C7.88632463,3.61392917 11.4538712,4.5306268 12.9180052,5.73122646 C14.3821392,6.93182612 16.0908482,9.33107816 16.0908482,9.33107816 C16.0908482,9.33107816 15.3389393,6.17177124 13.6070839,4.97059098 C11.7861455,3.65499603 8.31333841,3.61419261 7.92239209,3.61382518 Z" id="Combined-Shape" fill="#ffffff"></path>
            </g>
        </g>
    </g>
</svg>